<svg width="60" height="60" viewBox="0 0 60 60" fill="none" xmlns="http://www.w3.org/2000/svg">
<rect opacity="0.2" width="60" height="60" rx="30" fill="#86EFC3"/>
<path d="M36.8542 38.7292H22.8757V18.6806H36.8503V40.1805H38.7287V18.2712C38.7299 16.4728 37.2533 15 35.4561 15H24.2725C22.4728 15 21 16.4728 21 18.2712V41.7275C21 43.5285 22.4728 45 24.2725 45H35.4561C37.2533 45 38.7299 43.5285 38.7299 41.7275V38.6944H36.8542V38.7292ZM29.8624 43.3624C29.0333 43.3624 28.3639 42.6917 28.3639 41.864C28.3639 41.0336 29.0333 40.3641 29.8624 40.3641C30.6927 40.3641 31.3635 41.0348 31.3635 41.864C31.3635 42.6917 30.6928 43.3624 29.8624 43.3624Z" fill="#3EDC9A"/>
<path d="M28.6696 20.6914H24.4766V23.2482H28.6696V20.6914Z" fill="#3EDC9A"/>
<path d="M35.3415 20.6953H31.1484V23.2521H35.3415V20.6953Z" fill="#3EDC9A"/>
<path d="M28.6696 27.2383H24.4766V29.7951H28.6696V27.2383Z" fill="#3EDC9A"/>
<path d="M35.3415 27.2422H31.1484V29.799H35.3415V27.2422Z" fill="#3EDC9A"/>
<path d="M28.6696 34.0898H24.4766V36.6453H28.6696V34.0898Z" fill="#3EDC9A"/>
<path d="M35.3415 34.0898H31.1484V36.6453H35.3415V34.0898Z" fill="#3EDC9A"/>
</svg>
