<svg width="60" height="60" viewBox="0 0 60 60" fill="none" xmlns="http://www.w3.org/2000/svg">
<rect opacity="0.1" width="60" height="60" rx="30" fill="#FF8F6B"/>
<path d="M35.8542 38.7292H21.8757V18.6806H35.8503V20.1805H37.7287V18.2712C37.7299 16.4728 36.2533 15 34.4561 15H23.2725C21.4728 15 20 16.4728 20 18.2712V41.7275C20 43.5285 21.4728 45 23.2725 45H34.4561C36.2533 45 37.7299 43.5285 37.7299 41.7275V38.6944H35.8542V38.7292ZM28.8624 43.3624C28.0333 43.3624 27.3639 42.6917 27.3639 41.864C27.3639 41.0336 28.0333 40.3641 28.8624 40.3641C29.6927 40.3641 30.3635 41.0348 30.3635 41.864C30.3635 42.6917 29.6928 43.3624 28.8624 43.3624Z" fill="#FF8F6B"/>
<path d="M27.6696 20.6953H23.4766V23.2521H27.6696V20.6953Z" fill="#FF8F6B"/>
<path d="M27.6696 27.2422H23.4766V29.799H27.6696V27.2422Z" fill="#FF8F6B"/>
<path d="M27.6696 34.0898H23.4766V36.6453H27.6696V34.0898Z" fill="#FF8F6B"/>
<circle cx="37.3477" cy="29.5" r="7" stroke="#FF8F6B" stroke-width="1.8"/>
<path d="M40.5823 27.6213L36.821 31.3825C36.6258 31.5778 36.3092 31.5778 36.1139 31.3825L34.3462 29.6148" stroke="#FF8F6B" stroke-width="1.8" stroke-linecap="round"/>
</svg>
