<svg width="320" height="74" viewBox="0 0 320 74" fill="none" xmlns="http://www.w3.org/2000/svg">
<path d="M45.6399 59.608L39.6639 52.84C35.9919 54.784 31.6719 55.864 26.9199 55.864C11.5119 55.864 0.927938 44.632 0.927938 28.36C0.927938 12.088 11.5839 0.783998 26.9919 0.783998C42.4719 0.783998 53.1279 12.016 53.1279 28.288C53.1279 35.56 50.9679 41.896 47.2239 46.576L52.9839 53.128L45.6399 59.608ZM40.8159 28.288C40.8159 18.136 35.6319 12.016 27.0639 12.016C18.4239 12.016 13.2399 18.136 13.2399 28.288C13.2399 38.512 18.4239 44.632 27.0639 44.632C28.7919 44.632 30.3039 44.416 31.7439 43.912L24.7599 35.992L32.1039 29.512L39.0159 37.288C40.1679 34.84 40.8159 31.816 40.8159 28.288ZM83.7909 19H94.8789V55H84.4389L83.7189 50.968C81.4869 53.92 77.0229 55.936 72.7029 55.936C64.4949 55.936 59.4549 50.464 59.4549 41.608V19H70.5429V37.576C70.5429 43.48 72.5589 46.072 77.0949 46.072C81.8469 46.072 83.7909 43.624 83.7909 37.72V19ZM108.671 13.384C105.143 13.384 102.335 10.576 102.335 7.048C102.335 3.52 105.143 0.783998 108.671 0.783998C112.127 0.783998 114.935 3.52 114.935 7.048C114.935 10.576 112.127 13.384 108.671 13.384ZM103.199 55V19H114.287V55H103.199ZM151.19 55H121.022V45.784L137.15 28.216H121.022V19H151.19V28.216L134.63 45.784H151.19V55Z" fill="#34A853"/>
<path d="M199.996 37.288H190.06V55H178.396V1.72H199.996C210.868 1.72 218.14 8.848 218.14 19.504C218.14 30.16 210.868 37.288 199.996 37.288ZM197.404 12.088H190.06V26.92H197.404C203.02 26.92 205.828 24.472 205.828 19.504C205.828 14.536 203.02 12.088 197.404 12.088ZM235.225 55H224.137V0.711999H235.225V55ZM254.415 55.936C246.783 55.936 242.031 51.472 242.031 44.416C242.031 37.792 246.711 33.688 255.351 33.04L265.431 32.248V31.672C265.431 28.144 263.271 26.272 259.311 26.272C254.631 26.272 252.111 28.072 252.111 31.312H242.895C242.895 23.176 249.591 17.848 259.887 17.848C270.327 17.848 276.231 23.68 276.231 33.976V55H266.439L265.719 50.248C264.567 53.56 259.815 55.936 254.415 55.936ZM258.303 47.728C262.551 47.728 265.503 45.64 265.503 41.536V39.592L259.887 40.096C255.063 40.528 253.335 41.608 253.335 43.912C253.335 46.504 254.919 47.728 258.303 47.728ZM280.249 72.28V62.992H286.369C290.113 62.992 291.697 61.84 293.137 57.952L293.785 56.224L279.313 19H291.193L299.041 42.112L307.753 19H319.273L300.985 62.848C297.961 70.192 293.929 73.288 287.593 73.288C284.929 73.288 282.409 72.928 280.249 72.28Z" fill="#F6821F"/>
</svg>
