<svg width="186" height="26" viewBox="0 0 186 26" fill="none" xmlns="http://www.w3.org/2000/svg">
<path d="M13.32 12.3356H24.5908V24.9324H18.865V21.1654C18.1116 24.0283 16.1829 25.294 12.7776 25.294C3.2848 25.294 0.904074 22.8831 0.904074 13.1794C0.904074 3.47569 3.2848 1.06482 12.7776 1.06482C22.3005 1.06482 24.6511 2.8127 24.5908 9.8042H17.9609C18.0212 6.54954 17.5089 6.18791 12.7776 6.18791C8.04626 6.18791 7.53395 6.88103 7.53395 13.1794C7.53395 19.4778 8.04626 20.1709 12.7776 20.1709C16.3939 20.1709 18.0212 19.2668 18.1417 17.1573H13.32V12.3356ZM36.086 6.48927C42.7761 6.48927 44.4637 7.75497 44.4637 12.7575V24.9324H38.7379V22.4612C38.1352 24.3899 36.5681 25.2639 33.7052 25.294C28.1 25.4748 26.7137 24.3598 26.7137 19.7189C26.7137 15.3191 28.1 14.204 33.6148 14.204L38.7379 14.1739V13.1493C38.7379 10.9494 38.4667 10.7083 36.0257 10.7083C33.2833 10.7083 32.982 10.9494 33.0422 13.0589H27.3164V12.426C27.3164 7.66456 29.0643 6.48927 36.086 6.48927ZM32.7409 19.7792C32.7409 21.1051 33.0724 21.2558 36.0257 21.1955C37.9242 21.1654 38.7379 20.5627 38.7379 19.1764V18.3929L36.0257 18.423C33.0724 18.423 32.7409 18.5436 32.7409 19.7792ZM47.1814 6.8509H52.9072V8.93027C53.5099 7.24266 54.8961 6.48927 57.1563 6.48927C61.2849 6.48927 62.9122 7.30293 63.3944 10.196C63.9369 7.63443 65.4738 6.48927 68.3065 6.48927C73.8214 6.48927 75.2076 8.08646 75.2076 14.4451V24.9324H69.4818V15.1985C69.4818 11.7028 69.2106 11.311 66.8299 11.311C64.8409 11.311 63.9971 12.426 64.0273 14.9876V24.9324H58.3617V15.1985C58.3617 11.7028 58.0905 11.311 55.6796 11.311C53.751 11.311 52.9072 12.426 52.9072 14.9876V24.9324H47.1814V6.8509ZM95.5352 19.1764C95.4146 24.0584 93.6065 25.294 86.4944 25.294C79.1413 25.294 77.303 23.4256 77.303 15.8916C77.303 8.35769 79.1413 6.48927 86.4944 6.48927C93.6366 6.48927 95.5352 8.14674 95.6858 14.7163V17.519H83.3603C83.4809 20.6832 84.0534 21.075 86.5246 21.075C88.9053 21.075 89.508 20.6832 89.508 19.1764H95.5352ZM83.3904 13.3H89.6587C89.5984 10.9795 89.1765 10.7083 86.5246 10.7083C84.2945 10.7083 83.6014 11.0096 83.3904 13.3Z" fill="#3AC4FF"/>
<path d="M112.976 24.9324V6.8509H105.773V1.42645H126.567V6.8509H119.304V24.9324H112.976ZM128.087 6.8509H133.812V24.9324H128.087V6.8509ZM127.936 5.04275V0.823739H133.963V5.04275H127.936ZM136.971 6.8509H142.697V8.93027C143.299 7.24266 144.685 6.48927 146.946 6.48927C151.074 6.48927 152.702 7.30293 153.184 10.196C153.726 7.63443 155.263 6.48927 158.096 6.48927C163.611 6.48927 164.997 8.08646 164.997 14.4451V24.9324H159.271V15.1985C159.271 11.7028 159 11.311 156.619 11.311C154.63 11.311 153.786 12.426 153.817 14.9876V24.9324H148.151V15.1985C148.151 11.7028 147.88 11.311 145.469 11.311C143.54 11.311 142.697 12.426 142.697 14.9876V24.9324H136.971V6.8509ZM185.325 19.1764C185.204 24.0584 183.396 25.294 176.284 25.294C168.931 25.294 167.092 23.4256 167.092 15.8916C167.092 8.35769 168.931 6.48927 176.284 6.48927C183.426 6.48927 185.325 8.14674 185.475 14.7163V17.519H173.15C173.27 20.6832 173.843 21.075 176.314 21.075C178.695 21.075 179.297 20.6832 179.297 19.1764H185.325ZM173.18 13.3H179.448C179.388 10.9795 178.966 10.7083 176.314 10.7083C174.084 10.7083 173.391 11.0096 173.18 13.3Z" fill="#FF9A3C"/>
</svg>
