<svg width="140" height="48" viewBox="0 0 140 48" fill="none" xmlns="http://www.w3.org/2000/svg">
<path d="M9.95828 14.7878H5.0629L4.11068 18.4258H0.314015L5.86862 0.651042H9.15255L14.7438 18.4258H10.9105L9.95828 14.7878ZM5.84421 11.7969H9.16476L7.50448 5.46096L5.84421 11.7969ZM20.1641 18.4258H16.575V0.651042H20.1641V18.4258ZM32.5307 15.447H38.83V18.4258H28.9416V0.651042H32.5307V15.447ZM49.634 14.7878H44.7387L43.7864 18.4258H39.9898L45.5444 0.651042H48.8283L54.4195 18.4258H50.5863L49.634 14.7878ZM45.52 11.7969H48.8405L47.1802 5.46096L45.52 11.7969ZM68.5197 18.4258H64.9306L59.6812 6.76721V18.4258H56.092V0.651042H59.6812L64.9428 12.3218V0.651042H68.5197V18.4258ZM83.4866 16.4115C82.7948 17.1602 81.9443 17.7259 80.9352 18.1084C79.9341 18.4828 78.8354 18.6699 77.639 18.6699C75.5962 18.6699 74.0092 18.0392 72.8779 16.7777C71.7467 15.5081 71.1647 13.6647 71.1322 11.2475V8.04904C71.1322 5.59932 71.6653 3.71523 72.7314 2.39678C73.8057 1.07018 75.3683 0.406883 77.4193 0.406883C79.3481 0.406883 80.8009 0.882993 81.7775 1.83521C82.7623 2.78743 83.332 4.28087 83.4866 6.31552H79.9951C79.8975 5.18425 79.6615 4.41515 79.2871 4.00822C78.9127 3.59315 78.3267 3.38562 77.5291 3.38562C76.5607 3.38562 75.8567 3.73965 75.4172 4.44771C74.9777 5.15577 74.7498 6.28296 74.7335 7.8293V11.0522C74.7335 12.6718 74.9736 13.8519 75.4538 14.5925C75.9421 15.325 76.7397 15.6912 77.8466 15.6912C78.5546 15.6912 79.1284 15.5488 79.5679 15.2639L79.8853 15.0442V11.7847H77.3704V9.07451H83.4866V16.4115ZM97.5868 0.651042V12.9566C97.5705 14.8041 97.0618 16.2202 96.0608 17.205C95.0597 18.1816 93.6233 18.6699 91.7514 18.6699C89.8469 18.6699 88.3901 18.1735 87.3809 17.1806C86.3799 16.1877 85.8794 14.7512 85.8794 12.8712V0.651042H89.4929V12.8834C89.4929 13.8926 89.6557 14.6128 89.9812 15.0442C90.3068 15.4755 90.8968 15.6912 91.7514 15.6912C92.6059 15.6912 93.1919 15.4796 93.5093 15.0564C93.8267 14.625 93.9895 13.9211 93.9976 12.9444V0.651042H97.5868ZM108.525 14.7878H103.63L102.677 18.4258H98.8808L104.435 0.651042H107.719L113.311 18.4258H109.477L108.525 14.7878ZM104.411 11.7969H107.732L106.071 5.46096L104.411 11.7969ZM126.8 16.4115C126.109 17.1602 125.258 17.7259 124.249 18.1084C123.248 18.4828 122.149 18.6699 120.953 18.6699C118.91 18.6699 117.323 18.0392 116.192 16.7777C115.06 15.5081 114.478 13.6647 114.446 11.2475V8.04904C114.446 5.59932 114.979 3.71523 116.045 2.39678C117.119 1.07018 118.682 0.406883 120.733 0.406883C122.662 0.406883 124.115 0.882993 125.091 1.83521C126.076 2.78743 126.646 4.28087 126.8 6.31552H123.309C123.211 5.18425 122.975 4.41515 122.601 4.00822C122.226 3.59315 121.64 3.38562 120.843 3.38562C119.874 3.38562 119.17 3.73965 118.731 4.44771C118.291 5.15577 118.064 6.28296 118.047 7.8293V11.0522C118.047 12.6718 118.287 13.8519 118.768 14.5925C119.256 15.325 120.053 15.6912 121.16 15.6912C121.868 15.6912 122.442 15.5488 122.882 15.2639L123.199 15.0442V11.7847H120.684V9.07451H126.8V16.4115ZM138.52 10.7348H132.929V15.447H139.545V18.4258H129.34V0.651042H139.521V3.64198H132.929V7.84151H138.52V10.7348ZM25.499 44.447H31.7983V47.4258H21.9098V29.651H25.499V44.447ZM43.054 39.7348H37.4627V44.447H44.0794V47.4258H33.8736V29.651H44.055V32.642H37.4627V36.8415H43.054V39.7348ZM54.6393 43.7878H49.7439L48.7917 47.4258H44.995L50.5496 29.651H53.8336L59.4248 47.4258H55.5915L54.6393 43.7878ZM50.5252 40.7969H53.8458L52.1855 34.461L50.5252 40.7969ZM66.481 40.9312H64.6986V47.4258H61.1095V29.651H66.835C68.6336 29.651 70.0213 30.119 70.9979 31.055C71.9827 31.9828 72.4751 33.3053 72.4751 35.0225C72.4751 37.3827 71.6164 39.0349 69.8992 39.9789L73.0122 47.2549V47.4258H69.1545L66.481 40.9312ZM64.6986 37.9402H66.7373C67.4535 37.9402 67.9907 37.7042 68.3488 37.2322C68.7069 36.752 68.8859 36.1131 68.8859 35.3155C68.8859 33.5332 68.1901 32.642 66.7984 32.642H64.6986V37.9402ZM87.3687 47.4258H83.7796L78.5302 35.7672V47.4258H74.9411V29.651H78.5302L83.7918 41.3218V29.651H87.3687V47.4258ZM93.9976 47.4258H90.4085V29.651H93.9976V47.4258ZM109.441 47.4258H105.852L100.602 35.7672V47.4258H97.013V29.651H100.602L105.864 41.3218V29.651H109.441V47.4258ZM124.408 45.4115C123.716 46.1602 122.865 46.7259 121.856 47.1084C120.855 47.4828 119.756 47.6699 118.56 47.6699C116.517 47.6699 114.93 47.0392 113.799 45.7777C112.668 44.5081 112.086 42.6647 112.053 40.2475V37.049C112.053 34.5993 112.586 32.7152 113.652 31.3968C114.727 30.0702 116.289 29.4069 118.34 29.4069C120.269 29.4069 121.722 29.883 122.698 30.8352C123.683 31.7874 124.253 33.2809 124.408 35.3155H120.916C120.818 34.1843 120.582 33.4152 120.208 33.0082C119.834 32.5932 119.248 32.3856 118.45 32.3856C117.482 32.3856 116.778 32.7396 116.338 33.4477C115.899 34.1558 115.671 35.283 115.654 36.8293V40.0522C115.654 41.6718 115.895 42.8519 116.375 43.5925C116.863 44.325 117.661 44.6912 118.768 44.6912C119.476 44.6912 120.049 44.5488 120.489 44.2639L120.806 44.0442V40.7847H118.291V38.0745H124.408V45.4115Z" fill="#2E2F38"/>
</svg>
