<svg width="60" height="60" viewBox="0 0 60 60" fill="none" xmlns="http://www.w3.org/2000/svg">
<rect opacity="0.2" width="60" height="60" rx="30" fill="#68CB91"/>
<path d="M38.7051 28.2676C40.7877 27.975 42.391 26.1895 42.3955 24.0263C42.3955 21.8945 40.8414 20.1269 38.8036 19.7925" stroke="#68CB91" stroke-width="2.23934" stroke-linecap="round" stroke-linejoin="round"/>
<path d="M41.4531 33.2744C43.47 33.576 44.8778 34.2821 44.8778 35.7377C44.8778 36.7394 44.215 37.3903 43.1431 37.7994" stroke="#68CB91" stroke-width="2.23934" stroke-linecap="round" stroke-linejoin="round"/>
<path fill-rule="evenodd" clip-rule="evenodd" d="M29.7467 33.8914C24.9486 33.8914 20.8506 34.6184 20.8506 37.5221C20.8506 40.4242 24.9232 41.1722 29.7467 41.1722C34.5449 41.1722 38.6414 40.4526 38.6414 37.5474C38.6414 34.6423 34.5703 33.8914 29.7467 33.8914Z" stroke="#68CB91" stroke-width="2.23934" stroke-linecap="round" stroke-linejoin="round"/>
<path fill-rule="evenodd" clip-rule="evenodd" d="M29.7463 29.7474C32.8948 29.7474 35.4477 27.1961 35.4477 24.0461C35.4477 20.8976 32.8948 18.3447 29.7463 18.3447C26.5978 18.3447 24.045 20.8976 24.045 24.0461C24.033 27.1841 26.5665 29.737 29.7045 29.7474H29.7463Z" stroke="#68CB91" stroke-width="2.23934" stroke-linecap="round" stroke-linejoin="round"/>
<path d="M20.7861 28.2676C18.7021 27.975 17.1002 26.1895 17.0957 24.0263C17.0957 21.8945 18.6498 20.1269 20.6876 19.7925" stroke="#68CB91" stroke-width="2.23934" stroke-linecap="round" stroke-linejoin="round"/>
<path d="M18.038 33.2744C16.0211 33.576 14.6133 34.2821 14.6133 35.7377C14.6133 36.7394 15.2761 37.3903 16.348 37.7994" stroke="#68CB91" stroke-width="2.23934" stroke-linecap="round" stroke-linejoin="round"/>
</svg>
