<svg width="60" height="60" viewBox="0 0 60 60" fill="none" xmlns="http://www.w3.org/2000/svg">
<rect opacity="0.1" width="60" height="60" rx="30" fill="#5B93FF"/>
<g clip-path="url(#clip0_4406_9338)">
<path d="M39.8005 29.5014C39.8005 30.3699 39.0936 31.0767 38.2252 31.0767C37.3568 31.0767 36.6499 30.3699 36.6499 29.5014C36.6499 28.633 37.3568 27.9262 38.2252 27.9262C39.0936 27.9262 39.8005 28.633 39.8005 29.5014ZM20.123 29.5014C20.123 30.3699 20.8299 31.0767 21.6983 31.0767C22.5667 31.0767 23.2736 30.3699 23.2736 29.5014C23.2736 28.633 22.5667 27.9262 21.6983 27.9262C20.8299 27.9262 20.123 28.633 20.123 29.5014ZM17.5918 38.7646H35.6334V36.5498H20.2577C20.2846 36.395 20.3048 36.2334 20.3048 36.0651C20.3048 34.6177 19.1267 33.4396 17.6793 33.4396C17.5245 33.4396 17.3696 33.4531 17.2215 33.48V25.5161C17.3696 25.5431 17.5245 25.5565 17.6793 25.5565C19.1267 25.5565 20.3048 24.3784 20.3048 22.9311C20.3048 22.7628 20.2913 22.6079 20.2577 22.4464H39.5178C39.4639 22.6483 39.437 22.8637 39.437 23.0859C39.437 24.5333 40.6151 25.7114 42.0624 25.7114C42.2846 25.7114 42.5067 25.6844 42.7087 25.6306V31.0094H44.9235V22.8301C44.9235 21.4029 43.7589 20.2383 42.3317 20.2383H17.5918C16.1646 20.2383 15 21.4029 15 22.8301V36.1728C15 37.6 16.1646 38.7646 17.5918 38.7646ZM36.6499 36.9066C36.4682 36.9066 36.3201 37.0547 36.3201 37.2364V38.4347C36.3201 38.6165 36.4682 38.7646 36.6499 38.7646H44.5936C44.7754 38.7646 44.9235 38.6165 44.9235 38.4347V37.2364C44.9235 37.0547 44.7754 36.9066 44.5936 36.9066H36.6499ZM46.4651 35.8295V34.6312C46.4651 34.4494 46.317 34.3013 46.1353 34.3013H38.1916C38.0098 34.3013 37.8617 34.4494 37.8617 34.6312V35.8295C37.8617 36.0112 38.0098 36.1593 38.1916 36.1593H46.1353C46.317 36.1593 46.4651 36.0112 46.4651 35.8295ZM47.6701 31.6961H39.7264C39.5447 31.6961 39.3966 31.8442 39.3966 32.0259V33.2242C39.3966 33.406 39.5447 33.5541 39.7264 33.5541H47.6701C47.8519 33.5541 48 33.406 48 33.2242V32.0259C48 31.8442 47.8519 31.6961 47.6701 31.6961ZM29.9651 23.8197C33.1022 23.8197 35.6469 26.3644 35.6469 29.5014C35.6469 32.6385 33.1022 35.1832 29.9651 35.1832C26.828 35.1832 24.2834 32.6385 24.2834 29.5014C24.2834 26.3644 26.8213 23.8197 29.9651 23.8197ZM30.4633 25.2805H29.817C29.716 25.2805 29.642 25.3613 29.642 25.4555V26.2297C29.1506 26.3038 28.7466 26.4788 28.4437 26.775C28.1071 27.0981 27.9388 27.5088 27.9388 28.0137C27.9388 28.5657 28.1004 28.9898 28.4168 29.2726C28.7332 29.5553 29.2448 29.838 29.9382 30.1208C30.2277 30.242 30.4229 30.3699 30.5373 30.4978C30.6518 30.6257 30.7056 30.8074 30.7056 31.0431C30.7056 31.245 30.6518 31.4066 30.5441 31.5345C30.4364 31.6557 30.2748 31.723 30.0594 31.723C29.8036 31.723 29.5949 31.6422 29.44 31.4806C29.3121 31.346 29.2313 31.144 29.2111 30.8748C29.2044 30.767 29.1102 30.6863 29.0024 30.693L27.9388 30.7132C27.8244 30.7132 27.7301 30.8142 27.7301 30.9286C27.757 31.4941 27.9388 31.9249 28.2754 32.2346C28.6389 32.5645 29.0967 32.7664 29.642 32.827V33.5541C29.642 33.6551 29.7228 33.7291 29.817 33.7291H30.4633C30.5643 33.7291 30.6383 33.6483 30.6383 33.5541V32.8001C31.0759 32.7193 31.4327 32.5443 31.7087 32.2817C32.0318 31.9653 32.1934 31.5547 32.1934 31.0363C32.1934 30.4978 32.0318 30.0804 31.7087 29.7842C31.3856 29.4947 30.8807 29.1985 30.194 28.909C29.8978 28.7811 29.6958 28.6532 29.5881 28.5253C29.4804 28.3974 29.4266 28.2291 29.4266 28.0271C29.4266 27.8252 29.4737 27.6636 29.5747 27.529C29.6756 27.4011 29.8305 27.3338 30.0392 27.3338C30.2479 27.3338 30.4094 27.4145 30.5373 27.5694C30.6383 27.6973 30.6989 27.8723 30.7191 28.1079C30.7258 28.2156 30.8268 28.2897 30.9278 28.2897L31.9914 28.2762C32.1059 28.2762 32.2069 28.1752 32.2001 28.0608C32.1732 27.5963 32.0251 27.2058 31.7491 26.8894C31.4663 26.5596 31.0961 26.3509 30.6316 26.2566V25.4555C30.6383 25.3546 30.5575 25.2805 30.4633 25.2805Z" fill="#5B93FF"/>
</g>
<defs>
<clipPath id="clip0_4406_9338">
<rect width="33" height="33" fill="white" transform="translate(15 13)"/>
</clipPath>
</defs>
</svg>
