<svg width="60" height="60" viewBox="0 0 60 60" fill="none" xmlns="http://www.w3.org/2000/svg">
<rect opacity="0.1" width="60" height="60" rx="30" fill="#F79650"/>
<g clip-path="url(#clip0_1599_4989)">
<path d="M32.9385 17.9014H23.0234C22.3816 17.9014 21.7961 18.0115 21.2671 18.229C20.7354 18.4492 20.2439 18.7822 19.7954 19.2334L19.7981 19.2361C19.6155 19.4187 19.4543 19.6067 19.3093 19.8C18.4983 19.8323 17.7195 19.9531 16.9702 20.1626C16.9917 20.1035 17.0159 20.0444 17.04 19.988C17.3596 19.2146 17.8296 18.5164 18.4553 17.8933L18.458 17.896L18.4607 17.8933C19.0864 17.2676 19.7847 16.7976 20.5527 16.4807C21.3154 16.1584 22.1399 16 23.0234 16H27.5164H37.4314C38.3123 16 39.1394 16.1584 39.9102 16.4753C40.6836 16.7949 41.3818 17.2649 42.0049 17.8879L42.0022 17.8906C42.6306 18.519 43.1006 19.2173 43.4175 19.9827C43.7344 20.7534 43.8928 21.5779 43.8928 22.4614V22.4856H41.9915V22.4614C41.9915 21.8196 41.8813 21.2341 41.6638 20.7051C41.4436 20.1733 41.1106 19.6819 40.6621 19.2334L40.6594 19.2307L40.6567 19.2334C40.2029 18.7795 39.7141 18.4465 39.1851 18.229C38.656 18.0115 38.0679 17.9014 37.4287 17.9014H32.9385ZM38.5137 26.7261H44.7092V28.2273L41.3335 31.6594H44.9133V33.4104H38.2559V31.748L41.4705 28.4797H38.5137V26.7261ZM34.5981 24.1909H37.1602V25.9285H34.5981V24.1909ZM34.5981 26.7261H37.1602V33.4104H34.5981V26.7261ZM32.9492 33.4104H30.5564V32.3335C30.1992 32.7766 29.842 33.0935 29.4822 33.2815C29.1196 33.4695 28.6765 33.5635 28.1475 33.5635C27.4438 33.5635 26.8933 33.354 26.4932 32.9297C26.093 32.5081 25.8943 31.8582 25.8943 30.98V26.7261H28.4697V30.408C28.4697 30.8269 28.5476 31.125 28.7007 31.3022C28.8564 31.4795 29.0713 31.5654 29.3506 31.5654C29.6541 31.5654 29.9011 31.4473 30.0972 31.2136C30.2905 30.9773 30.3872 30.5557 30.3872 29.946V26.7234H32.9492V33.4104ZM23.5498 32.0569C23.9043 32.304 24.1353 32.4597 24.2454 32.5215C24.4065 32.6128 24.6267 32.7202 24.9033 32.8438L24.1165 34.439C23.719 34.2456 23.3242 34.0173 22.9348 33.7515C22.5454 33.4856 22.2715 33.2842 22.1184 33.1526C21.49 33.4238 20.7031 33.5635 19.7524 33.5635C18.3506 33.5635 17.2468 33.1982 16.4358 32.4678C15.4771 31.6084 14.999 30.3945 14.999 28.8315C14.999 27.3142 15.418 26.1353 16.2559 25.2947C17.0938 24.4541 18.2593 24.0352 19.7632 24.0352C21.2939 24.0352 22.4729 24.446 23.3054 25.2678C24.1379 26.0869 24.5542 27.2632 24.5542 28.7913C24.5542 30.1528 24.2185 31.2405 23.5498 32.0569ZM21.3665 30.5959C21.5947 30.1904 21.7075 29.5835 21.7075 28.7725C21.7075 27.8433 21.533 27.1799 21.1892 26.7798C20.8428 26.3823 20.3647 26.1836 19.7551 26.1836C19.1858 26.1836 18.7266 26.3877 18.3748 26.7932C18.0203 27.1987 17.8457 27.8352 17.8457 28.6973C17.8457 29.7043 18.0176 30.4106 18.3613 30.8162C18.7078 31.2217 19.1777 31.4258 19.7766 31.4258C19.97 31.4258 20.1526 31.407 20.3245 31.3694C20.0828 31.1384 19.7068 30.9209 19.1885 30.7141L19.6343 29.6909C19.8867 29.7366 20.0854 29.793 20.2251 29.8601C20.3674 29.9272 20.6414 30.1018 21.0522 30.3892C21.1489 30.4563 21.2537 30.5261 21.3665 30.5959ZM18.8152 37.7717C19.0327 38.2766 19.3604 38.7439 19.7927 39.179L19.8357 39.2246C20.2734 39.6489 20.7515 39.9712 21.2698 40.1833C21.7988 40.4009 22.3843 40.511 23.0234 40.511H27.2827C27.8091 40.511 28.2334 40.938 28.2334 41.4617C28.2334 41.5745 28.2146 41.6846 28.177 41.7866C28.0212 42.3882 27.8413 42.979 27.6426 43.5537C27.4331 44.158 27.2048 44.7407 26.9551 45.2966C26.8477 45.5464 26.7241 45.7908 26.5872 46.0325C27.4116 45.6592 28.1851 45.2349 28.9102 44.7568H28.9128L28.9102 44.7542C29.7104 44.2305 30.449 43.6504 31.1311 43.0112C31.8213 42.364 32.4497 41.6577 33.0217 40.8977C33.207 40.6506 33.4917 40.519 33.7791 40.519V40.5164H37.4341C38.0732 40.5164 38.6587 40.4062 39.1877 40.1887C39.7222 39.9685 40.2163 39.6328 40.6675 39.1843C41.116 38.7358 41.449 38.2444 41.6692 37.7126L41.6907 37.6589H43.6833C43.6135 37.9248 43.5276 38.1826 43.4228 38.4351C43.106 39.2031 42.6333 39.9041 42.0049 40.5325C41.3765 41.1555 40.6782 41.6282 39.9102 41.9451C39.1421 42.262 38.3176 42.4231 37.4368 42.4231H34.241C33.6797 43.1348 33.0754 43.7927 32.4282 44.3997C31.6602 45.1221 30.833 45.7747 29.9495 46.3521L29.9468 46.3494C29.0579 46.9348 28.1099 47.4478 27.1082 47.8855C26.1064 48.3232 25.0403 48.6885 23.915 48.9812C23.582 49.0671 23.2114 48.9678 22.967 48.6912C22.6206 48.2991 22.6582 47.7002 23.0476 47.3538C23.5498 46.908 23.9768 46.4595 24.3313 46.0083L24.3716 45.9519C24.7288 45.49 25.0107 45.02 25.2175 44.5474L25.2202 44.5393C25.4539 44.0183 25.666 43.4866 25.8513 42.9468C25.9104 42.7749 25.9695 42.6003 26.0259 42.4231H23.0234C22.1426 42.4231 21.3181 42.262 20.55 41.9451C19.8035 41.6362 19.124 41.1824 18.509 40.5862C18.4875 40.5701 18.4688 40.5513 18.45 40.5325C17.8269 39.9094 17.3542 39.2112 17.0374 38.4377C16.8977 38.0994 16.7903 37.7502 16.7097 37.3877C17.3757 37.5811 18.0767 37.7126 18.8152 37.7717Z" fill="#F79650"/>
</g>
<defs>
<clipPath id="clip0_1599_4989">
<rect width="29.9143" height="33" fill="white" transform="translate(15 16)"/>
</clipPath>
</defs>
</svg>
