<svg width="60" height="60" viewBox="0 0 60 60" fill="none" xmlns="http://www.w3.org/2000/svg">
<rect opacity="0.1" width="60" height="60" rx="30" fill="#5B93FF"/>
<path fill-rule="evenodd" clip-rule="evenodd" d="M16.4785 21.7039C16.4785 17.7847 16.5205 16.4788 21.7036 16.4788C26.8868 16.4788 26.9288 17.7847 26.9288 21.7039C26.9288 25.623 26.9453 26.929 21.7036 26.929C16.462 26.929 16.4785 25.623 16.4785 21.7039Z" stroke="#5B93FF" stroke-width="2.23934" stroke-linecap="round" stroke-linejoin="round"/>
<path fill-rule="evenodd" clip-rule="evenodd" d="M32.9004 21.7039C32.9004 17.7847 32.9424 16.4788 38.1255 16.4788C43.3087 16.4788 43.3506 17.7847 43.3506 21.7039C43.3506 25.623 43.3672 26.929 38.1255 26.929C32.8839 26.929 32.9004 25.623 32.9004 21.7039Z" stroke="#5B93FF" stroke-width="2.23934" stroke-linecap="round" stroke-linejoin="round"/>
<path fill-rule="evenodd" clip-rule="evenodd" d="M16.4785 38.1255C16.4785 34.2064 16.5205 32.9004 21.7036 32.9004C26.8868 32.9004 26.9288 34.2064 26.9288 38.1255C26.9288 42.0447 26.9453 43.3506 21.7036 43.3506C16.462 43.3506 16.4785 42.0447 16.4785 38.1255Z" stroke="#5B93FF" stroke-width="2.23934" stroke-linecap="round" stroke-linejoin="round"/>
<path fill-rule="evenodd" clip-rule="evenodd" d="M32.9004 38.1255C32.9004 34.2064 32.9424 32.9004 38.1255 32.9004C43.3087 32.9004 43.3506 34.2064 43.3506 38.1255C43.3506 42.0447 43.3672 43.3506 38.1255 43.3506C32.8839 43.3506 32.9004 42.0447 32.9004 38.1255Z" stroke="#5B93FF" stroke-width="2.23934" stroke-linecap="round" stroke-linejoin="round"/>
</svg>
