<svg width="60" height="60" viewBox="0 0 60 60" fill="none" xmlns="http://www.w3.org/2000/svg">
<rect opacity="0.1" width="60" height="60" rx="30" fill="#F06B6B"/>
<path d="M30.037 14.9C29.3981 14.8985 28.7669 15.039 28.189 15.3113L28.1887 15.3115L16.342 20.9456C15.9216 21.1093 15.5603 21.3959 15.3052 21.7681C15.0495 22.1414 14.9127 22.5833 14.9127 23.0357C14.9127 23.4882 15.0495 23.93 15.3052 24.3033C15.5603 24.6755 15.9216 24.9622 16.342 25.1258L28.1887 30.76L28.1892 30.7602C28.7676 31.0309 29.3984 31.1712 30.037 31.1712C30.6756 31.1712 31.3063 31.0309 31.8847 30.7602L31.8853 30.76L43.7319 25.1258C44.1523 24.9622 44.5137 24.6755 44.7687 24.3033C45.0244 23.93 45.1612 23.4882 45.1612 23.0357C45.1612 22.5833 45.0244 22.1414 44.7687 21.7681C44.5137 21.3959 44.1524 21.1093 43.7319 20.9456L31.8853 15.3115L31.885 15.3113C31.307 15.039 30.6758 14.8985 30.037 14.9ZM30.037 14.9C30.0369 14.9 30.0368 14.9 30.0367 14.9L30.037 15L30.0372 14.9C30.0371 14.9 30.037 14.9 30.037 14.9ZM30.8794 17.4267L42.6727 23.0408L30.8796 28.6446C30.8794 28.6447 30.8791 28.6449 30.8788 28.645C30.6143 28.7646 30.3273 28.8265 30.037 28.8265C29.7466 28.8265 29.4596 28.7646 29.1951 28.645L17.4013 23.0307L29.1945 17.4267C29.1947 17.4266 29.195 17.4265 29.1952 17.4264C29.4596 17.3061 29.7465 17.2435 30.037 17.2429C30.3274 17.2435 30.6143 17.3061 30.8787 17.4264C30.8789 17.4265 30.8792 17.4266 30.8794 17.4267Z" fill="#F06B6B" stroke="#F06B6B" stroke-width="0.2"/>
<path d="M30.0375 37.7608C30.8576 37.7633 31.6671 37.5744 32.4015 37.2093C32.4015 37.2093 32.4015 37.2093 32.4015 37.2093L44.4872 31.2093L44.4872 31.2094L44.49 31.2079C44.7583 31.064 44.96 30.8214 45.0525 30.5313L44.9572 30.5009L45.0525 30.5313C45.1449 30.2413 45.1208 29.9266 44.9853 29.654C44.8498 29.3814 44.6134 29.1723 44.3264 29.0709C44.0393 28.9696 43.724 28.984 43.4474 29.111L43.4474 29.111L43.4447 29.1123L31.3593 35.1122C31.3592 35.1122 31.3591 35.1123 31.359 35.1123C30.9477 35.3144 30.4956 35.4195 30.0374 35.4195C29.5791 35.4195 29.1269 35.3144 28.7156 35.1122C28.7155 35.1122 28.7155 35.1122 28.7154 35.1122L16.6314 29.113C16.4936 29.0393 16.3423 28.994 16.1867 28.9796C16.0305 28.9653 15.8729 28.9824 15.7235 29.03C15.574 29.0777 15.4356 29.1549 15.3166 29.257C15.1975 29.3591 15.1002 29.4841 15.0303 29.6246C14.9605 29.7651 14.9196 29.9181 14.91 30.0747C14.9004 30.2313 14.9224 30.3882 14.9746 30.5361C15.0269 30.6841 15.1083 30.82 15.214 30.9358C15.3194 31.0513 15.4469 31.1445 15.5889 31.21L27.6732 37.2147L27.6734 37.2148C28.4083 37.578 29.2177 37.765 30.0375 37.7608ZM30.0375 37.7608C30.0373 37.7608 30.0372 37.7608 30.0371 37.7608L30.0374 37.6608L30.0379 37.7608C30.0377 37.7608 30.0376 37.7608 30.0375 37.7608Z" fill="#F06B6B" stroke="#F06B6B" stroke-width="0.2"/>
<path d="M30.0374 45.0999C30.8567 45.1015 31.6654 44.9148 32.401 44.554L32.4015 44.5538L44.4872 38.5484L44.4872 38.5485L44.49 38.547C44.7583 38.4031 44.96 38.1605 45.0525 37.8704C45.1449 37.5804 45.1208 37.2657 44.9853 36.9931C44.8498 36.7205 44.6134 36.5114 44.3264 36.41C44.0393 36.3087 43.724 36.3231 43.4474 36.4501L43.4474 36.4501L43.4447 36.4515L31.3593 42.4513C31.3592 42.4513 31.3591 42.4514 31.359 42.4514C30.9477 42.6535 30.4956 42.7586 30.0374 42.7586C29.5791 42.7586 29.1269 42.6535 28.7156 42.4513C28.7155 42.4513 28.7155 42.4513 28.7154 42.4513L16.6314 36.4521C16.4936 36.3784 16.3423 36.3331 16.1867 36.3188C16.0305 36.3044 15.8729 36.3215 15.7235 36.3691C15.574 36.4168 15.4356 36.494 15.3166 36.5961C15.1975 36.6982 15.1002 36.8232 15.0303 36.9637C14.9605 37.1042 14.9196 37.2572 14.91 37.4138C14.9004 37.5704 14.9224 37.7273 14.9746 37.8752C15.0269 38.0232 15.1083 38.1591 15.214 38.275C15.3194 38.3904 15.4469 38.4836 15.5889 38.5491L27.6732 44.5538L27.6737 44.554C28.4093 44.9148 29.2181 45.1015 30.0374 45.0999ZM30.0374 45.0999C30.0373 45.0999 30.0372 45.0999 30.0372 45.0999L30.0374 44.9999L30.0376 45.0999C30.0375 45.0999 30.0374 45.0999 30.0374 45.0999Z" fill="#F06B6B" stroke="#F06B6B" stroke-width="0.2"/>
</svg>
